<svg version="1.2" xmlns="http://www.w3.org/2000/svg" viewBox="0 0 1280 720" width="1280" height="720"><style>.a{fill:#00c7ff}</style><path class="a" d="m278.7 404.1q-3-1.3-4.9-0.3-1.9 0.9-3.1 3.2-1.2 2.3-2 6.1-0.7 3.5-1.4 7.5 4.3-2.9 8.8-4.4 4.7-1.4 9-3.5 4.3-2.3 7.7-6.1 3.6-4 5.6-11.8-4.1 2.3-9.2 4.6-5 2.1-10.5 4.6zm59-9.2q-2.1 0-4-0.6-1.9-0.9-3.5-0.4-1.6 0.2-2.5 2.5-0.9 2.1-0.9 7.7 2.8-2.5 5.3-3.1 2.4-0.8 3.8-2.9 1.2-2.6 3.1-2.6 1.8 0 3.4 0 1.7 0 2.8-1 1.2-1.3 1.2-5.7-2.8 2.1-5.1 3-2.3 0.6-3.6 3.1zm-20.5-41.1q-1.4 5.6-0.8 11.3 0.6 5.4 1.8 10.9 1.4 5.5 2.6 10.9 1.3 5.5 1.3 11.2 0.9-5.7 0.7-11.2-0.2-5.4-1-10.9-0.9-5.5-2.1-10.9-1.2-5.7-2.5-11.3zm-1.8-3.2q-2.7 0-5.5 0.4-2.7 0.4-5.3 2.8v15.3h1.8q2.6 0 4.1-1.9 1.4-2.1 2.3-4.8 0.9-3 1.4-6.1 0.4-3.4 1.2-5.7zm-10.8-25.6h1.8l-1.8-6.3zm0-24.8l-1.6 9.2h1.6q0.7 2.4 1.3 5.1 0.8 2.5 1.5 4.6 0.9 1.9 1.8 2.9 1.2 1.1 2.6-0.2-0.7-2.5-1.9-4.8-1.1-2.3-2.4-4.8-1.2-2.8-2.1-5.5-0.8-2.9-0.8-6.5zm5.4 9.2q0.7 2.4 1.8 4.2 1.3 1.7 2.2 3.8 1 2.1 1.5 4.6 0.6 2.4-0.1 5.7-1.4 4.2-3.1 4.8-1.6 0.5-3.4-0.4-1.9-0.8-3.9-1.7-2.1-1-4.2-0.2-0.9-3.1-1-6.9-0.1-3.8 0.1-7.8 0.3-4 0.5-7.7 0.4-4 0.4-7.6 0-1 0.3-2.5 0.4-1.7 1.2-3.2 0.7-1.4 1.7-2.5 1.1-1 2.4-1 1.4 1 1.7 3.1 0.5 2.1 0.7 4.8 0.2 2.8 0.3 5.5 0.1 2.7 0.9 5zm-22.2-29.1l-10.7 23.1q-0.8 13.2-2.2 26.2-1.4 12.8-3.1 26-1.6 13.1-3.3 26.5-1.7 13.4-3.1 27.7 0.8-2.1 1.6-3.8 0.9-1.6 1.5-3.1 0.7-1.5 1-2.5 0.2-1.3-0.4-2.3 2.9-14.5 6-28.8 3.1-14.3 5.7-28.8 2.5-14.7 4.4-29.6 1.8-15.1 2.6-30.6zm3.5-8.9q-0.6 16.4-2.2 32.2-1.6 15.5-4.2 30.6-2.4 15.1-5.7 30.3-3.2 15.1-7 30.4l4.9-3.3q0.6 0 0.6 0.6 0.1 0.4 0 1.5-0.1 0.8-0.4 2.1-0.2 1-0.2 2.3 6.6 0 12.1-2.3 5.7-2.4 11.6-7 0-2.1 0.2-4.6 0.3-2.5 0.3-4.8 0-2.3-0.6-4.2-0.5-2.1-2.3-3.4 1.8-3.3 2-6.7 0.3-3.4 0.3-6.7 0-3.6 0.2-7 0.4-3.3 2.1-6.9 1.2 1.3 3.4 1.5 2.2 0 4.7-0.9 2.4-1 4.9-2.5 2.6-1.7 4.5-4v2.8q1.5 5.8 2 12.6 0.6 6.7 1.4 12.8 0.7 5.9 2 10.3 1.4 4.4 4.6 5.8v5.9q4-2.3 6.9-2.9 2.8-0.9 5.4-3-6.7-31.2-15.1-61.9-8.5-30.9-17.7-62-5.3 2.6-10.1 5.1-4.6 2.5-8.6 7.3zm22.1-9q5.1 14.3 9.4 28.6 4.2 14 8.2 27.9 3.9 13.9 7.7 27.3 3.8 13.2 7.7 25.6-0.6 4.2 0.5 7.2 1.1 2.7 2.2 5.2 1.2 2.3 1.4 4.8 0.2 2.6-2.1 5.9 0.6 0 1.4-0.8 0.8-0.9 1.7-1.5 0.8-0.6 1.6-0.2 0.8 0.2 1.4 2.5 0 2.3-0.7 3.2-0.7 0.8-1.7 1.4-1 0.7-2.1 1.5-1 0.8-1.6 3.2-3.4-1.3-6.3-0.9-2.8 0.4-5.6 1.5-2.7 1-5.6 2.7-2.9 1.5-6.6 2.3-0.6 0.9-1.1 1.3-1.1 0.8-1.1-1.3-1.1-4.4-1.8-9.2-0.7-5.1-1.7-9.9-1-5-2.6-9.9-1.5-4.8-4.2-9l-7.2 3.4q1.2 6.1 0.6 11.5-0.5 5.5-2.2 10.5-1.7 5.1-4.4 9.7-2.7 4.4-5.7 8.8-6.6 3.8-13.4 6.3-6.7 2.5-14.1 4.8-1.5 0-1.9 1.5-0.4 1.3-1.6 1.3l-1.6-2.8q1.2-14.2 2.9-28.1 1.9-13.9 3.4-27.7 1.8-14.1 2.9-28.4 1.2-14.5 1.2-30-0.6 0-1-1.1-0.2-1-0.2-2.5 0-1.4 0.2-2.9 0.4-1.7 1-2.7 2.3-3.6 4.8-7.2 2.4-3.8 4.5-7.8 2.1-3.9 3.6-8.1 1.6-4.2 2.3-8.9 2.6-3.3 5.7-6.5 3.2-3.3 6.5-5.9 3.4-2.7 6.9-4.2 3.5-1.6 6.8-1.6 1.4 1 1.5 2.1 0.2 1 0 2.3-0.1 1-0.4 2.3-0.1 1.2 0.5 2.5zm58.7 156.2q2.7 2.4 4.8 1.7 2.1-0.8 3.8-2.9 1.7-2.1 3.2-4.4 1.5-2.5 2.8-3.8-2.1 1.3-4.4 1.3-2.2-0.3-4.3 0.2-2 0.2-3.6 1.9-1.6 1.4-2.3 6zm20-24.9q-0.7 2.3-0.4 4.2 0.5 1.8 1 3.7 0.5 1.7 0.6 3.6 0.2 1.7-1.2 4 1.2 2.3 1.7 4.2 0.5 1.9 1.9 1.9 2.7 1.2 5.1 0.4 2.5-0.8 4.7-2.9 2.2-2.1 4.3-4.7 2.1-2.7 4.2-5-2.9 0-5.6 0-2.7-0.2-5.5-1-2.7-1.1-5.4-3-2.7-1.9-5.4-5.4zm5.4-46.7q-0.7 2.3-1.3 4.2-0.6 1.9-1 3.8-0.4 1.7-0.4 3.6 0.1 1.9 0.9 4.2 1.3 0 2.7 1 1.5 0.9 2.8 1.7 1.4 0.9 2.7 1.3 1.4 0.2 2.7-1.1l-1.8-9.2q-0.7-1.3-1.4-2.7-0.7-1.7-1.6-3.2-0.7-1.5-1.8-2.5-1.1-1.1-2.5-1.1zm1.9-6.1q1.3 1.3 2.4 2.6 1.1 1 2.1 2.5 1 1.5 2.1 3.3 1.1 1.7 2.4 4 0.8 1.3 0.8 2.6 0.1 1 0.1 2.3 0 1 0.1 2.3 0.1 1 0.9 2.3 2.8-4.8 4-9.9 1.4-5 1.4-12-1.4-4.6-3.6-5.6-2.2-1.1-4.6-0.2-2.4 0.8-4.6 2.7-2.2 1.9-3.5 3.1zm18.1-3.1q1.4 6.9 0.4 13.6-0.9 6.6-2.2 11.4-2.1 3.3-4.7 4.8-2.6 1.3-5.5 1.3-2.9 0-6-0.9-3-1-5.7-2.3-0.6-2.3-0.9-5.4-0.4-3.4-0.4-7 0-3.5 0.4-6.7 0.3-3.3 0.9-5.7 0.8 1.3 1.1 1.5 0.4 0 0.8-0.2 0.3-0.4 0.7-0.8 0.4-0.5 1.1-0.5 2.1-3.5 4.9-6.7 3-3.1 5.8-4.2 2.9-1.2 5.4 0.4 2.6 1.5 3.9 7.4zm-52.6-74.6l-3.7 6.1q0 12.8 0.2 25.2 0.3 12.4 0.4 24.6 0.2 12.2 0.1 24.6 0 12.4-0.7 25.2l1.9 2.9q-1.4 12-0.6 25.2 1 13 2.4 24.8 0.7-1.3 2-2.5 1.5-1.3 2.7-3 1.3-1.9 1.6-4.2 0.4-2.5-0.9-5.8 1.3-9.5 1.3-20.2 0-10.9-1.3-20.4-2.1-12.8-2.7-26-0.5-13.5-0.8-26.5-0.1-13-0.3-25.6-0.3-12.8-1.6-24.4zm3.5-9.4q0 11.8 0.3 23.3 0.2 11.6 1.6 23.5-1.4 13.9-0.4 26.9 1 13 2.5 25.6 1.5 12.4 2.8 24.8 1.3 12.4 0.6 25.2 1.3 1.3 2.9 1.5 1.6 0 3.3-0.2 1.8-0.5 3.4-0.9 1.7-0.4 3.2-0.4v-21.8h1.7q1.9 0 3.4 2.5 1.6 2.3 3.1 5.2 1.6 3 3.4 5.5 1.9 2.3 4.6 2.3 7 2.3 12.2-0.2 5.4-2.7 9.6-12.2 3.5-6.9 4.9-15.3 1.5-8.6 1.5-17.7 0-9-1.2-18-1.3-9-3.3-17.2-1.4-3.6-3.5-7-1.9-3.3-4.4-5.8-2.3-2.8-5-4.2-2.6-1.7-5.3-1.7-5.5 2.3-10.6 8.8-4.9 6.5-7.6 16 0 1.2 0.3 2.3 0.2 1 0.3 1.9 0.3 0.8 0.2 1.4-0.2 0.4-0.8 0.4-0.7-1-1.5-0.2-0.6 0.7-1.2 1.5-0.6 0.8-1.3 1.1-0.6 0-1.4-2.4 0-9.2 0.3-19.1 0.2-9.8 0.2-19.9 0-10.1-0.5-20.6-0.5-10.5-1.9-21-2.1 1.1-4.5 1.3-2.2 0.2-4.4 0.6-2.2 0.2-4.2 1-1.9 0.9-3.3 3.2zm20.2 3.4q0.6 8.1 0.7 15.9 0.1 7.6 0.1 15.1 0 7.6 0.1 15.4 0.2 7.5 0.8 15.7 1.3-4.6 3.5-8.6 2.4-4.2 5.3-7.3 3-3.4 6.3-5.7 3.3-2.3 6.7-3.6 6.8 0 11.7 6.3 5 6.3 6.4 15.8 1.4 5.6 2.7 12.1 1.3 6.3 2.2 13.1 0.8 6.5 1.1 13.6 0.2 6.9-0.5 13.9-1.4 4.6-2.8 9.2-1.4 4.4-3.1 8.6-1.7 4-3.9 7.6-2.1 3.3-4.8 5.6-2.7 4.7-5.8 9.1-3 4.4-6.5 7.3-3.3 2.8-7.1 3.8-3.8 0.8-7.9-1.5l-5.2-6.3q-1.4 2.4-4 5.1-2.4 2.7-5.3 7.3-2 1.3-4 0.2-2-1.2-3.9-2.1-1.9-1-3.6-0.2-1.6 0.7-2.9 5.3-1.4 0-2.6-1.9-1.1-1.9-1.1-4.2-1.4-14.1-1.6-28.6-0.1-14.5 0.2-28.9 0.4-14.5 0.9-29 0.5-14.5 0.5-28.6-2.1-1.2-2.4-2.9-0.2-1.7 0-3.6 0.4-2.1 0.8-4.4 0.5-2.3-0.3-4.6-1.3-3.4-1.8-7-0.4-3.5-0.2-6.9 0.2-3.6 0.8-6.9 0.6-3.6 1.2-7.2 1.4 0 2.7-1.8 1.5-1.9 2.9-4.2-0.7-3.6 0.1-5.5 0.8-2.1 2.3-3.2 1.6-1.2 3.5-1.8 1.8-0.9 3.1-2.1 1.4 0.8 3.2 0.6 1.9-0.4 3.7-0.9 2-0.4 3.7-0.4 1.8-0.2 3 1.1 1.2 1 1.5 4 0.4 2.7-0.4 8.2zm122.5 140.9q-2.7 2.3-5.4 4-2.7 1.4-5.5-0.9-2.7 2.3-4.3 6.3-1.6 3.8-3 6.1l12.8-3.2q0.7-1.2 1.6-2.3 1-1.2 1.7-2.7 0.9-1.5 1.5-3.1 0.6-1.9 0.6-4.2zm-18.2-3.2q0 2.3-1.1 4.2-1.1 1.9-2.1 4-1 2.1-1.3 4.6-0.4 2.3 0.9 5.9 2.7-4.8 4.3-7.8 1.6-3.1 3-7.7 0-2.3-1.2-2.8-1.1-0.4-2.5-0.4zm-23.6-52.7q-1.3 2.3-1.3 6.3 0 3.8 1.3 6.1 0.8 3.6 2 5.5 1.4 1.6 2.9 2.7 1.8 0.8 3.7 1 2 0 4.1 0 0-1.2 0.5-1.9 0.6-0.6 1.1-1.2 0.5-0.6 0.7-1.3 0.3-0.6-0.5-1.7-0.7-3.5-2.3-6.3-1.6-2.9-3.7-5-2-2.1-4.3-3.1-2.2-1.1-4.2-1.1zm11-9.4v-3q-2.9 0-5.3 0.9-2.5 0.6-3.8 5.2 1.9 1.3 4.3 2.9 2.3 1.7 4.5 4.2 2.2 2.4 4.2 5.3 2 2.9 3.3 6.3 0-2.3 0.3-4.6 0.2-2.3 1.5-4.6-1.3-4.9-3.9-7.6-2.4-2.7-5.1-5zm-31-6.1q-2.1 2.3-3.2 5.2-1.1 2.7-1.8 6.1-0.6 3.2-1.1 6.7-0.4 3.4-1.1 6.7 0 8.2-0.4 17.7-0.2 9.4 0.4 18.5 0.7 9 3.1 16.8 2.4 7.7 7.8 12.4 4.1 1 8.6 1.4 4.7 0.2 9.1-1.2 4.4-1.5 8.3-5.1 4-3.8 6.7-10.7l-7.3 3q-9.6 0-17.3-7-7.6-6.9-11.8-21-1.3-6.9-2.4-15.3-1.1-8.6-1.1-15.5 0-4.9 1.1-9.5 1.1-4.6 2.4-9.2zm36.4 0l5.4 18.7q0 6.9-2.2 11.9-2.3 4.9-5.1 9.7-1.3 1.2-3 1.5-1.6 0-3.4-0.3-1.6-0.4-3.3-0.8-1.6-0.4-2.9-0.4-2.7-2.3-3.7-5.7-1-3.3-1.4-7.1-0.3-3.8-0.6-7.6-0.2-4-1.6-7.5 2-3.4 4.6-6.1 2.7-3 5.5-4.7 2.9-1.8 5.9-2.3 3.1-0.6 5.8 0.7zm5.4-68.5q-4.1 2.3-5.4 7.8-1.4 5.4-1.4 12.2 0 6.5 0.6 13.6 0.8 7.1 0.8 13l5.4 3.2q0-7 0.2-13.5 0.3-6.5 0.4-12.6 0.2-6.1 0.1-11.9 0-5.9-0.7-11.8zm3.7-6.1q0 3.6-0.3 6.5-0.2 3-0.5 5.7-0.1 2.5-0.1 4.8 0.1 2.3 0.9 4.6 0 4.9 0 10.5 0 5.5-0.3 11.4-0.1 5.9-0.5 11.5-0.4 5.5-1.1 10.1-2.7-2.3-5.4-4.6-2.7-2.3-5.5-4.6-0.6 0-1.1-0.9-0.4-1-0.9-2.3-0.5-1.2-1.3-2.1-0.8-1-2.1-1-4.1-1.1-7.9 0.6-3.7 1.5-6.7 5-3 3.4-5.3 8.4-2.3 5.1-3.7 11-3.4 6.9-4 14.5-0.7 7.5 0.3 15.1 1 7.5 3.1 15.1 2.1 7.3 4.2 14.3 5.5 9.4 13.1 12.2 7.7 2.5 16 0.2 1.9-2.3 3-5.1 1.3-2.9 2.1-5.9 0.9-2.9 1.7-5.6 0.9-3 2.3-5.3 1.3 1.3 1.8 3 0.5 1.6 0.5 3.7 0 2.1-0.3 4.5-0.2 2.1-0.2 4.4 2 2.3 4 3.1 2.1 0.9 4.1 0.9 2.1 0 4-0.5 2.1-0.4 4.2-0.4 1.4-11.5 1.5-23.1 0.2-11.7-0.1-23.3-0.4-11.8-0.9-23.3-0.5-11.8-0.5-23.5 0-7-0.6-13.9-0.5-6.9-1-13.6-0.5-6.8-0.7-13.1-0.3-6.3 0.5-12.1-4.1 0-8.2 1.6-4.1 1.5-8.1 1.5zm18.1-9.2h1.9q0 28.1 0.1 55.8 0.2 27.8 1.6 55.9 0 8.2 0 17.2 0.1 8.8-0.8 17.2-0.7 8.4-3 15.8-2.2 7.3-7 12-2.1 1-4.7 0.8-2.6-0.2-5.1-0.2-2.6 0-4.8 1-2.2 1.1-3.6 4.4 0-2.3-0.2-6-0.3-4-1.6-6.3-2.7 4.6-6.4 7.5-3.6 3-7.8 4.2-4 1.1-8.3 0.4-4.3-0.6-8.3-2.9-2.1 0-3.9-1.5-1.7-1.7-3.3-4-1.4-2.3-2.9-5-1.4-2.7-2.7-5-0.8-9.3-1.9-18.9-0.9-9.9-1.3-19.4-0.4-9.6 0.6-18.7 1-9.2 4.4-17.4 2.7-3.6 4.9-8.4 2.2-4.8 4.5-9.2 2.2-4.4 4.6-7.4 2.6-3.1 6-3.1 4.1-4.6 9-4.6 5 0 9.1 4.6v-28q-1.4-1-1.2-2.1 0.1-1.2 0.7-2.3 0.7-1.2 1.5-2.3 0.8-1.2 0.8-2.5 2.1-3.4 3.5-5.2 1.4-2.1 2.7-3.6 1.2-1.5 2.3-3 1.1-1.4 2.5-3.7 4 0 9-1.9 5.1-1.9 9.1-4.2zm37.8 109.8q-1.9-1-2.5 0.4-0.5 1.3-0.4 3.8 0.2 2.5 0.7 5.7 0.5 2.9 0.5 5 2.6-1 5.8-1.2 3.2-0.3 6.4-0.3 3.3 0 6.5-0.2 3.2-0.2 5.7-1.2 1.4-4.6 2.6-7.6 1.4-2.9 2.7-7.3-6.6 0-14 1.4-7.3 1.5-14 1.5zm-22.7-18.1q-3.9 5.7-5.5 13.3-1.6 7.5-1.7 15.7-0.1 8 0.6 16.2 0.7 8 1.3 14.7 7.9 18.1 17.2 26.2 9.5 8.2 21.3 3.8 2.7-2.3 5-6.3 2.5-4.2 3.8-8.6-5.9 2.3-12 1.7-6.2-0.6-11.9-4-5.7-3.4-10.8-9.4-5.2-6.3-9.1-15.4-2-5.6-2.2-11.5-0.2-6.1 0.5-12.2 0.6-6.3 1.7-12.4 1.1-6.1 1.8-11.8zm21-8.8l1.7 5.9h3.5q-1.4-2.3-2.6-4-1.2-1.9-2.6-1.9zm3.5-3.1l3.5 6.1q1.2 1 1.7 0.8 0.5-0.4 0.6-1.5 0.3-1.2 0.4-2.7 0.1-1.5 0.7-2.7 0-2.1-1.1-3.2-1.1-1.2-2.4-1.2-1.2 0-2.3 1.2-1.1 1.1-1.1 3.2zm8.7-3v14.9q-2 0-4 0.9-1.8 0.8-3.6 1.5-1.9 0.6-3.5 0.4-1.6-0.4-2.9-2.8-0.6-3.3-0.4-6.5 0.2-3.3 1-6.1 0.8-2.9 2.1-5 1.2-2.1 2.6-3.4 1.3-1 2.8-1 1.6-0.2 2.8 0.6 1.3 0.9 2.2 2.5 0.9 1.7 0.9 4zm-15.7-18q-6.6 5.6-9.9 14.3-3.3 8.6-4.8 18.9-1.4 10-1.8 21-0.4 10.7-1 20.7 0.6 4.5 2.4 8.4 1.8 3.8 4.1 7 2.4 3.1 4.8 5.4 2.5 2.1 4.4 3.2 4 2.3 7.8 3.8 3.9 1.4 7.7 1.9 3.8 0.2 7.4-1.1 3.5-1.3 6.8-4.6 0.7-2.3 0.8-4 0.1-1.9-0.1-3.6-0.2-1.7-0.4-3.3-0.3-1.7-0.3-4-1.3 2.3-3.1 3.3-1.9 1.1-4.1 1.5-2.1 0.2-4.3-0.2-2.2-0.6-4.2-1.7-3.9-2.3-7.5-6.7-3.4-4.6-4.7-11.3 0-2.1-0.3-4.9-0.2-2.7-0.5-5.4-0.1-3 0-5.5 0.1-2.7 0.8-5 4.5 0 9-0.9 4.7-1 9.2-2.1 4.7-1.2 9.3-2.1 4.6-1 9.2-1-0.7-2.1-1-4.9-0.4-2.7-0.8-5.4-0.3-3-0.7-5.7-0.4-2.7-1-5-1.9-10.1-6-15.4-3.9-5.4-8.7-7.3-4.7-2.1-9.7-1.3-4.9 0.9-8.8 3zm27.9 0q3.4 4.4 5.1 10.1 1.8 5.4 2.9 11.3 1.3 5.9 2.1 12 0.9 5.8 2.2 11.5 0 1.3-0.3 1.9-0.3 0.4-0.5 0.8-0.5 0.5-0.9 0.5-2.6 2.3-4.2 6.3-1.6 3.7-3 7.1-1.5 3.4-3.5 5-1.8 1.7-5.1-0.6-4 2.3-9 2.7-4.9 0.3-10.2 0.3 0 3.3 0.9 5.4 0.8 1.9 2.1 3.4 1.3 1.2 2.8 2.7 1.6 1.3 2.9 3.6 2 0 4.2 0.4 2.2 0.2 4.3 0 2.2-0.4 4.1-1.7 1.8-1.5 3.1-4.8 1.4 0 1.8 0.6 0.5 0.4 0.6 1.3 0.2 0.8 0.3 1.9 0.2 1 0.9 2.3-0.7 3.3-0.4 7.1 0.4 3.6 0.5 6.9 0.3 3.4-0.5 6.1-0.6 2.6-3.2 3.8-2.5 6.7-5.2 11.6-2.6 4.8-5.2 9.2-5.9 2.3-11.5 1.1-5.6-1.5-10.7-5.5-5-4-9.6-9.9-4.5-5.9-8.5-12.6-1.9-5.6-2.8-11.7-0.7-6.1-1-12.4-0.1-6.5 0-13.3 0.3-6.7 0.3-13.4 2.7-11.3 7.5-23.9 4.8-12.6 10-24 1.3 1.1 2.2 0.7 1.2-0.5 1.9-1.5 0.8-1.1 1.6-2.5 0.7-1.7 1.3-2.8 3.3-2.1 7.2-3.1 3.8-1.3 7.7-0.9 3.9 0.3 7.7 1.9 3.8 1.7 7.1 5.1zm34.2 123.5l4.9-17.1q-2.6 0-5 1.5-2.5 1.3-5 1.3-1.2 4.2-2.3 7.1-1 3-1 7.2 0.6-1.1 1.5-0.9 1 0.2 2.1 0.9 1.1 0.4 2.3 0.8 1.2 0.2 2.5-0.8zm-10-164.3l-3.3 8.4q0.6 14.9 1 29.4 0.4 14.5 0.6 29.2 0.4 14.5 0.7 29.4 0.4 14.9 1 30.9 0 3.1-0.2 6.9-0.3 3.6-0.5 7.4-0.1 3.8 0 7.3 0.1 3.6 0.7 6.7 0-3.1 1-5 1-1.9 2.1-3.4 1.1-1.6 1.7-3.5 0.8-1.9 0.1-5.1-0.6-17-0.9-34.6-0.4-17.9-0.9-35.7-0.5-17.9-1.2-35.1-0.6-17.4-1.9-33.2zm3.3-2.9v-2.7q1.3 36.1 2.5 72 1.2 35.9 2.5 72.2h1.7q0 2.3-0.9 3.2-0.8 0.6-0.8 2.5 1.3 0 1.7-0.2 0.3-0.4 1.4-2.3 0.8-1.3 1.6-1.1 0.9 0.2 1.8 0.9 0.9 0.4 1.8 0.8 0.9 0.4 1.5-0.6l-1.6-54q-2.5-23.5-3.6-48.5-1-25.2 0.4-50.6-1.2 1-3 0.8-1.7-0.2-3.3 0.2-1.4 0.3-2.6 1.7-1.1 1.5-1.1 5.7zm11.6-11.3l1.6 2.9q-1.2 13.6-1.4 28.3 0 14.7 0.6 29.9 0.7 15.1 1.8 30.4 1.1 15.3 2.4 30.3 0 8.8 0.8 18.6 0.8 9.7 0.8 18.1-2.4 1.1-4.2 3.6-1.6 2.5-2.7 5.6-1.1 3.2-1.8 6.8-0.6 3.5-1.4 6.7-1.8 1-3.6 1.2-1.9 0.3-3.7 0-1.9-0.4-3.7-0.8-1.8-0.4-3.7-0.4 0.6-3.2 0.6-6.7 0.2-3.8 0-7.8-0.1-4-0.3-8.2-0.3-4.2-0.3-8.4 1.2-31.9 0.4-63.6-0.8-31.7-2.1-63.9 1.3-4.2 3.3-8.4 2.1-4.4 3.3-8.6 2.5-2.1 6-3.8 3.6-1.8 7.3-1.8zm34.9 158.5l-8.2 2.7q0 1.1-0.6 1.7-0.5 0.6-1.1 1.3-0.6 0.4-1.2 1-0.5 0.7-0.5 1.5h8.2q0-0.8 0.5-1.9 0.5-1 1.1-2.1 0.8-1 1.3-2.1 0.5-1 0.5-2.1zm42.4-8.6l-6.7 2.7q-1.3 1.3-3 1.1-1.6-0.2-3.2-0.2-1.4 0-2.5 1-1 0.9-1 4 1.2 0 2.7 0.4 1.5 0.4 2.9 0.7 1.6 0.2 3.1 0.2 1.5-0.2 2.7-1.3 1.2 1.1 2.1 0.2 1-0.8 1.6-2.3 0.7-1.7 1-3.6 0.3-1.9 0.3-2.9zm-55.6-86.5v-44.3l-6.4 19.5v8.2q0 15.7 1.1 30.9 1.3 15.1 2.2 30 1.2 14.9 1.4 29.6 0.2 14.7-1.6 29.4 1.2-2.1 2.7-3.8 1.5-1.7 2.7-3.3 1.2-1.9 2.1-4.2 0.8-2.4 0.8-5.5 0.7-11.3-0.1-21.8-0.7-10.8-1.8-21.3-1.1-10.5-2.1-21.2-1-10.7-1-22.2zm3.5-47.1q0 14.7 0.1 31.1 0.2 16.2 1.4 33 0 9.2 0.7 18.7 0.7 9.4 1.3 18.9 0.6 9.4 0.7 18.9 0.2 9.4-1.1 18.9 3.6 0 7-0.7 3.5-0.8 5.9-5.2 0.6-4 0.3-8.2-0.4-4.2-0.9-8.4-0.5-4.2-0.6-8.2 0-4.2 1.2-8.4 0.6-2.1 0.6-4.2 0.2-2.3 0-4.2-0.1-1.9-0.3-3.3-0.3-1.5-0.3-2.6 1.3-0.8 1.8-0.6 0.4 0.2 0.7 1.1 0.2 0.8 0.7 1.6 0.5 0.7 1.7 0.7 3.9 10.7 8.3 19.7 4.5 9 8.2 19.3 1.8 3.2 3.7 3.2 1.8 0 3.8-0.9 1.9-1 4-2.1 2.2-1 4.7-0.2-1.8-7.1-4.3-14.7-2.5-7.5-5.5-14.7-3-7.1-6.6-13-3.7-6.1-7.9-10.3l-1.6-2.9q2.3-3.2 4.3-7.2 2-4 3.7-7.9 1.8-4.2 3.7-8.2 1.9-4 4.4-7.2 0-2.1-0.6-3.8-0.5-1.6-1.3-3.1-0.7-1.7-1.6-3.4-0.8-1.6-1.3-3.7-4.9 10.7-10.1 21-5 10.2-11.3 20.7-1.2-4.2-1.4-9.6-0.2-5.7-0.2-9.9-1.2-7.3-1.9-14.1-0.6-6.9-1.1-13.6-0.4-6.9-0.8-13.7-0.3-6.9-1-14.2-3.6 0-6.2 0.8-2.6 0.6-5 4.8zm12.8-11.3l1.8 2.9q0 9.5 0.2 18.1 0.4 8.4 0.9 16.8 0.6 8.4 1.4 17 1 8.4 2.2 17.9 5.1-10.8 9.7-19.6 4.7-9 8.4-19.5h1.6q1.2 3.1 2.6 5.9 1.4 2.5 2.7 4.8 1.2 2.3 1.9 4.6 0.9 2.1 0.9 4.2-2.5 4.2-4.4 8.4-1.9 4-3.6 8.2-1.6 4.2-3.2 8.4-1.6 4.2-3.4 8.4 7.4 8.2 13.2 20.6 5.9 12.2 9.5 26.9l3.3 8.2q-1.8 1-3.1 3.1-1.2 1.9-2.2 4.4-0.8 2.3-1.6 4.9-0.6 2.5-1.2 4.6-2.4 0-4.9-0.4-2.5-0.5-4.8-0.7-2.2-0.4-4.3-0.2-2.1 0.2-3.9 1.3-1.4-2.3-1.6-4.2-0.1-2.1-0.1-4.2-1.9-3.2-3.2-7.2-1.3-4.2-2.5-8.4-1.2-4.2-2.6-7.9-1.3-4-3.2-7.2v-2.7h1.6q1.9 3.1 3.2 7.1 1.5 4 2.9 8.4 1.4 4.4 3 9.1 1.6 4.4 4.1 8.8 1.2-1.3 1.6-2.8 0.3-1.4 0.2-2.9-0.1-1.7-0.7-3.1-0.5-1.7-1.1-2.8-3.6-8.2-7.3-16.4-3.6-8.1-7.5-17-1.8 5.5-1.8 11.2 0 5.6 0.6 11.5 0.6 5.7 1.2 11.4 0.7 5.6 0 10.9-1.2 1-2.7 1.7-1.4 0.6-2.8 1.4-1.3 0.9-2.4 2.1-1.1 1.1-1.7 3.2l1.5 2.5q-1.2 0-1.7 1.3-0.3 1.2-0.6 2.3-0.1 1-0.2 1.2-0.2 0-0.8-2.1-1.8 1.1-3.9 1.1-2-0.2-4-0.2-2 0-3.9 0.8-1.7 0.8-2.9 4-1.1 0-1.4-1.7-0.1-1.7-0.1-4 1.3-8.4 1.5-17.6 0.4-9.3 0-18.9-0.2-9.7-1.1-19.3-0.9-9.9-2-19.4 0-12.6-1.1-25.4-1-12.8-2.2-27.3 0.6-3.1 1.6-6.3 1.1-3.3 2.1-6.7 1.1-3.6 1.8-7.1 0.9-3.8 0.9-8 1.2 0 1.6-0.8 0.5-1.1 0.6-2.4 0.3-1.2 0.4-2.7 0.1-1.5 0.7-2.5 0.6 0 0.8 1.3 0.1 1.2 0.2 2.7 0.2 1.2 0.6 2.1 0.5 0.6 1.9-0.4 3.6-2.1 6.9-2.8 3.5-0.6 5.9-2.9zm55.8 159.4q1.8-1.1 4.3-0.4 2.4 0.4 4.8 0.8 2.4 0.2 4.5-0.6 2.1-1.1 3.3-5.5-2.6 1.1-5.5 0.9-2.9-0.3-5.5-0.3-2.5 0-4.2 0.9-1.7 0.8-1.7 4.2zm37.4-90.3q-1.9 2.1-4 4.4-2.1 2.3-4 5-1.7 2.8-2.8 6.1-1.1 3.4-1.1 7.8 2-5.5 4.8-7.8 2.9-2.3 5.8-4.2 2.9-1.9 5.1-4.6 2.4-2.9 3.1-9.7-1.4 0-2.8 1.5-1.5 1.5-4.1 1.5zm-37.4-11.8q-2 4.4-2.5 9.5-0.5 4.8-0.3 10.1 0.1 5 0.4 10.5 0.5 5.4 0.5 10.7-1.2 6.7-1.4 13.8-0.2 7 0.1 14.1 0.4 7.1 0.8 14.3 0.5 6.9 0.5 13.4l5.3-11.7q-1.3-4.5-2.4-8.4-1-4-1-6.3-0.8-8.7-0.4-17.7 0.5-9.2 1-18.3 0.5-9 0.5-17.6 0.1-8.6-1.1-16.4zm22.1 11.8q-0.8 1-0.9 2.1-0.1 1-0.2 2.3-0.2 1-0.6 2.1-0.4 1-1.6 2.3-2-2.1-2.6-5.2-0.5-3.4-0.5-7.2 0-4 0.1-8.2 0.1-4.4-0.5-8.8h-3.4q-0.6 1.3-2.1 1.5-1.3 0.2-2.8 0.8-1.4 0.4-2.5 1.9-1.1 1.3-1.1 4.6 0.6 8.8 0.1 18.1-0.3 9-0.8 18-0.4 9.1-0.5 17.7-0.1 8.6 1.2 16.2 0.6 3.3 1.1 8.1 0.5 4.9 1.6 8.7 1.1 3.7 3.2 5.4 2.1 1.5 6-1.7 3.7 0 4.3-4 0.6-3.9 0.6-10.7-0.6-5.4-0.6-11.7 0-6.5 0.5-13 0.5-6.6 1.4-12.9 0.8-6.3 2.2-11.7 1.9-4.4 4.4-8.2 2.4-3.8 5.1-6.7 2.9-3.2 5.7-5.3 2.8-2.3 5.4-3.3 0-8-1.6-11.6-1.5-3.6-3.8-3.8-2.3-0.2-5.2 2.3-2.7 2.4-5.1 5.9-2.5 3.6-4.3 8-1.9 4.4-2.2 8zm25.5-14.7v11.7q-1.3 2.4-2.6 6.3-1.2 3.8-2.5 8.2-3.2 0-6.1 2.6-2.8 2.5-5.2 6.3-2.4 3.7-4.3 8.4-2 4.6-3.2 9 0 3.3-0.5 7.1-0.5 3.8-0.9 7.6-0.2 3.8-0.1 7.5 0.1 3.6 1.5 7-1.4 1-1.4 3.5 0.1 2.4 0.3 4.9 0.2 2.3-0.2 4.2-0.2 1.9-2.2 1.9-1.2 2.3-1.9 4.8-0.8 2.5-1.6 4.8-0.8 2.1-1.9 3.6-1.1 1.5-2.9 1.5-2 0-4.2-0.5-2.1-0.4-4.4-0.6-2.2-0.4-4.4-0.2-2.1 0.2-4.1 1.3v-3q0.6-8.8 0.3-17-0.4-8.2-0.9-16.4-0.5-8.2-0.6-16.3-0.1-8.4 1.2-17.3v-29.2l6.8-17.6q3.9-2.1 8.6-4 4.6-1.9 8.6-1.9v23.5q1.2-4.4 3.6-9.4 2.6-5 5.7-9.2 3.1-4.2 6.3-7 3.3-2.7 6.1-2.5 2.8 0.2 4.7 4 1.9 3.8 2.4 12.4zm29.6 101.8h-13.7q-1.5 2.6-2 5.7-0.5 2.9-2 7.8 2.2-1.3 4.9-1.5 2.9-0.4 5.4-1.3 2.6-1 4.6-3.3 2.1-2.3 2.8-7.4zm-17.7-87.7l-4 10q1.4 10.1 1.7 20.4 0.2 10.1 0 20.2-0.1 10-0.4 20.3-0.1 10.1 0.6 20.2 0.8-1.3 1.8-2.9 1.1-1.9 1.9-3.8 1-1.9 1.6-3.6 0.8-1.9 0.8-3.1-1.5-20.4-2-40.2-0.5-19.7-2-37.5zm7.9 3.3q-0.8 0-1.2-0.4-0.4-0.6-0.8-1.3-0.4-0.6-0.8-1-0.4-0.6-1.1-0.6 0.7 8.8 0.8 17.6 0.1 8.8 0.3 17.8 0.2 8.9 0.7 17.9 0.6 8.8 2.1 17.6 0.7 1.3 0.7 2.6 0.1 1.2-0.1 2.5-0.1 1.2-0.4 2.5-0.2 1.3-0.2 2.5 1.5 0 3.2 0.6 1.8 0.5 3.7 0.9 1.8 0.2 3.6 0 1.9-0.2 3.4-1.5-2.3-8.8-3-19.3-0.7-10.7-1.1-21.6-0.4-11.2-1.1-22.3-0.6-11.1-2.8-21.2-1.5 1.3-2.6 1.7-1.1 0.2-1.8 0.6-0.8 0.2-1.2 1.1-0.3 0.8-0.3 3.3zm7.8-13.6l2 3.3q1.5 11.4 1.8 23.8 0.4 12.3 0.9 24.5 0.6 12 2.1 23.1 1.5 11.2 5.1 20 0 1.2-0.3 1.4-0.4 0.3-1 0.3-0.5 0-1.2 0.2-0.8 0.2-1.5 1.4-0.7 1.3-2.1 2.8-1.2 1.2-2.6 3.3-1.2 1.9-2.2 4.6-1 2.6-1 6.3 0 1.3-0.3 1.1-0.3-0.4-0.6-1.5-0.5-1-1-3.1l-15.9 3.5q-1.4-2.7-1.9-6.7-0.5-4.2-1.9-6.9 0-10.1 0.5-20.2 0.5-10 0.6-19.9 0.3-9.9-0.3-19.3-0.6-9.5-2.9-18.3 1.5-3.8 2.7-7.4 1.3-3.7 2.5-6.9 1.3-3.3 2.9-5.7 1.6-2.5 3.9-3.7 0.7 1.2 2 1.9 1.4 0.6 3 0.6 1.7 0 3.4-0.6 1.9-0.7 3.3-1.9zm-5.9-27.1l-7.8 3.5-4.1 10.1q3 1.3 4.7-0.2 1.7-1.5 2.8-4 1.1-2.5 2-5.2 1-3 2.4-4.2zm-13.8-20.2q-2.2 3.8-2.9 7.6-0.4 3.8-0.3 7.5 0.2 3.8 0.7 7.6 0.6 3.8 0.6 7.6 1.5-2.6 2.2-6.1 0.8-3.6 0.9-7.6 0.2-4.2-0.1-8.4-0.4-4.4-1.1-8.2zm13.8-10.1h-5.8q-1.5 1.3-2.4 3.8-0.7 2.3-1 5.3-0.1 2.7 0.3 5.6 0.3 3 1.1 5.5 1.5 0 1.7 2.1 0.3 2.1 0.3 4.6 4.4 1.3 5.8-1.7 1.5-3.1 1.5-7.7 0-4.9-0.7-9.9-0.8-5-0.8-7.6zm4-6.9v3.4q0.7 3.7 0.8 7.5 0.2 3.8 0.2 7.4 0 3.3 0.1 6.5 0.1 3.1 0.8 5.7-0.7 2.5-2.1 5.2-1.3 2.5-2.7 5.5-1.2 2.7-2.2 6.1-0.8 3.1-0.8 6.9-1.5 1.2-3.6 1-2.1-0.2-4.2-0.2-1.9 0-3.6 1.3-1.6 1-2.4 4.8-1.4-1.2-2.1-3.6-0.4-2.5-0.7-5-0.1-2.5-0.4-4.8-0.1-2.3-0.8-3.6v-20.4q0.7-1.2 1.7-2.9 1-1.9 1.7-4 0.8-2.3 1-4.8 0.4-2.5-0.4-5.1 2.2-2.5 4.7-3.3 2.6-1.1 5.2-1.3 2.5-0.4 5-0.6 2.6-0.4 4.8-1.7zm40 156.7q-2.5 2.1-4.1 3.5-1.6 1.3-3.9-0.8-1.1 0-2.1 0.8-0.8 0.7-1.8 1.3-0.9 0.4-1.9 0.2-0.8-0.2-2-2.3l-1.6 8.4q2.3-1.1 5.1-1.1 2.8 0 5.3-0.4 2.6-0.6 4.4-2.5 2-2.1 2.6-7.1zm53.5 5.4q1.1-1 2.7-0.4 1.7 0.6 3.5 0.8 1.8 0.3 3.4-0.6 1.7-1 2.9-5.2-1.8 0-4-0.7-2.1-0.6-4.1-0.6-1.8 0-3.2 1.5-1.2 1.2-1.2 5.2zm-18.9-43.2q-2.4 0-3.8 1.6-1.2 1.7-2.4 3.8 1.1 0 2.2 0.4 1.2 0.5 2.3 0.5 1.2 0 2.5-0.7 1.2-0.8 2.3-2.9-1.1-2.1-1.5-2.3-0.4-0.4-1.6-0.4zm18.9-24q-1.2-1-2.2-1.2-1-0.2-1.7-0.2-0.7 0-1.4-0.3-0.4-0.2-0.9-1.2-1.4 2.3-3.2 4.6-1.8 2.3-1.8 6.1 4.2 3.1 6.7 8.4 2.6 5.2 4 11.5 1.5 6.3 2.2 13.1 0.8 6.7 1.4 12.8 2.3-4 2.7-9.7 0.4-5.7 0.4-11.5-0.7-4-1-8.4-0.4-4.7-1-8.9-0.5-4.4-1.5-8.1-1-4-2.7-7zm-31.7-13.8q-2.3 0-4.1 1.4-1.7 1.3-3.1 3.4-1.2 2.1-2.2 4.6-0.9 2.3-1.5 4.4 3.6 0 6.2 3 2.5 2.7 4.7 4.8 0.7 2.1 1.5 4.2 0.9 2.1 1.6 4.4 0.8 2.3 1.2 4.8 0.5 2.6 0.5 5.5l1.8-2.7q1.1-5.1 0.8-10.3-0.1-5.5-1.2-10.5-1-5.1-2.7-9.5-1.6-4.4-3.5-7.5zm-34.5-16l-1.5-2.7-1.6 2.7q-0.7 12.2-1.6 24.8-1 12.4-1.8 24.6-0.7 11.9-0.8 23.5-0.1 11.3 1 21.4 1.2-2.1 1.6-3.8 0.3-1.7 1.6-1.7 1.2-11.1 1.6-22 0.4-11.1 0.6-22.3 0.1-11.1 0.2-22.2 0.1-11.2 0.7-22.3zm62.9-5.2q-2.9 1-5.2 3.7-2 2.8-3.9 6.5-1.7 3.8-3.3 8.2-1.5 4.4-3.2 8.4l-1.7-2.9q0.6-2.9 0.4-5.5-0.2-2.7-0.6-5.2-0.4-2.5-0.9-5.1-0.5-2.7-0.5-5.6-2.2-1.9-4.7-3.6-2.3-1.7-4.8-1.7-2.9 0-5.7 1.9-2.8 1.9-5.2 4.8-2.3 3-4 7-1.6 4-2.2 8-0.7 0.8-0.8 2.7-0.1 1.7-0.1 3.8 0 2.1-0.1 4-0.1 1.8-0.8 2.7-0.9 0-1.2-1.3-0.1-0.6-0.1-1.2-1.2-8-2.5-16.4-1.1-8.6-2.4-18.7-1.1 1-2.5 0.8-1.3-0.2-2.6-0.2-1.1 0-1.9 0.9-0.8 0.8-0.8 4 0 18-0.2 34.8-0.1 16.8-1.4 34.9 0 4.2 0.3 7.3 0.2 3.2 0.4 6.3 0.1 3 0 6.3 0 3.2-0.7 7.2 1.8 1 3.5 0.8 1.8-0.4 3.7-1.5 1.9-1 4-2.3 2.1-1.4 4.4-2.5 0.7-6.1 1-12.8 0.5-6.9 0.9-13.7 0.5-6.9 1.1-13.2 0.7-6.5 2-11.5 0.4-4 1.8-8.2 1.5-4.2 3.3-7.6 2-3.6 4.2-5.9 2.3-2.3 4.6-2.3 5 8 7.8 18.1 2.9 10.1 1.7 22.2h6.4q0-2.1 0.5-3.9 0.5-2.1 0.8-3.8 0.5-1.7 0.6-3.2 0.3-1.7-0.3-2.7 1.2-2.1 1.6-4.8 0.3-3 1.4-3 2.5-4.2 4.7-4.8 2.3-0.6 4.8-0.6 3.6 4 5.5 9.2 2 5.3 3 11.1 1 5.7 1.4 11.6 0.5 5.9 1.2 10.9 0 3.2-0.5 5.7-0.5 2.5-1.1 4.8-0.7 2.3-1.1 4.4-0.5 2.1-0.5 4 2.4 0 3.8 1.5 1.3 1.2 2.5 1.2 1.9-9 2.9-18.9 0.9-10 1.2-20.1 0.4-10.1 0-20-0.3-9.8-0.9-18.9-1.2-4-3.2-8.2-1.9-4.4-4.5-7.1-2.5-2.7-5.4-3.4-2.9-0.6-5.9 2.6zm20.8 10.5q2.2 20.5 1.3 42-0.7 21.4-3.1 41.5 0 2.1-0.6 3.8-0.5 1.5-1.2 3.2-0.7 1.4-1.6 3.1-0.7 1.7-1.4 3.8-1.8-2.1-3.8-2.3-1.9-0.4-4-0.2-2.1 0.2-4.2 0.4-1.9 0.2-3.8-0.8 1.2-2.1 3.2-5.5 2.1-3.4 3.2-5.5 0-11.9-2.2-22.4-2.1-10.5-5.5-20.6-1.4-1.9-2.7-3.6-1.4-1.7-3.7-1.7 0 2.1-0.9 5.5-0.7 3.1-0.7 5.2l1.6 2.6q-1.3 1-2.2 3.5-1 2.6-2.2 4.9-1.1 2.3-2.7 3.3-1.5 1.1-3.9-1-0.6-0.9-1.4-0.4-0.9 0.2-1.9 0.6-0.8 0.4-1.7 0.6-0.8 0.2-1.3-0.8 0-1.7 0.7-2.1 0.4-0.2 0.7-0.2-1.1-2.3-0.6-4.2 0.6-2.1 0.6-4.2-1.2-3-2.2-5.9-1-3-1.9-5.5-1-2.5-2.4-4.4-1.2-2.1-2.9-3.1-2.3-1.7-4.6-1.1-2 0.6-3.1 6.7-0.7 6.1-0.8 12.6-0.1 6.3-0.2 12.8-0.2 6.6-0.6 13.1-0.4 6.5-1.6 12.6 0 1-0.4 1.4-0.3 0.5-0.5 0.9-0.5 0.4-0.9 0.4-0.5 0-1.2 0.6-0.7 0.4-1.3 1.5-0.7 1-0.9 2.7-0.1 1.5 0.5 3.6-1.2 1.9-2.2 2.3-1 0.2-1.9 0-0.8-0.4-1.8-0.6-0.9-0.2-2.1 0.6-1.7 0-3.5-0.2-1.8-0.4-3.5-0.2-1.6 0-3.1 0.6-1.4 0.6-2.7 2.5-0.3 0-0.7-0.4-0.6-0.6-0.6-2.3l1.3-5.2q-1.1-12.2-0.9-24.4 0.1-12.2 0.7-24.2 0.6-12.1 1.2-24.3 0.8-12.2 0.8-24.2 1.2-1 1.8-2.3 0.7-1.4 1.1-2.9 0.5-1.7 0.9-3 0.3-1.4 1-2.5-0.4 0-0.7-0.4-0.2-0.4-0.1-0.8 0.1-0.5 0.8-1.5 2.4-2.3 5.7-2.5 3.3-0.4 6.9-0.4 1.2 6.3 1.6 13.6 0.4 7.4 1.6 13.7 1.1-6.1 3.3-11.2 2.3-5 5.3-8.6 2.9-3.6 6.4-5.4 3.4-2.1 7-2.1l9.3 8.4 3.3 16.1q1.1-4 3.1-8 2.1-3.9 4.5-6.9 2.6-2.9 5.4-4.8 2.8-1.9 5.8-1.9 4.7 0 9.1 4 4.4 4 6.9 12z"/></svg>