<?xml version="1.0" standalone="no"?>
<!DOCTYPE svg PUBLIC "-//W3C//DTD SVG 20010904//EN"
 "http://www.w3.org/TR/2001/REC-SVG-20010904/DTD/svg10.dtd">
<!--<svg version="1.0" xmlns="http://www.w3.org/2000/svg"
 width="392.000000pt" height="251.000000pt" viewBox="0 0 392.000000 251.000000"
 preserveAspectRatio="xMidYMid meet">
 -->
<svg width="193" height="193" viewBox="0 0 270 270" fill="#000a1f" xmlns="http://www.w3.org/2000/svg">

<g transform="translate(0.000000,251.000000) scale(0.100000,-0.100000)"
fill="#fff" stroke="none">
<path d="M1755 1849 c-40 -78 -47 -87 -77 -93 -50 -9 -157 -63 -214 -107 -105
-81 -189 -217 -220 -357 -22 -99 -15 -292 13 -373 l19 -57 -63 -132 c-35 -73
-63 -135 -63 -137 0 -2 36 -3 81 -1 l80 3 254 520 253 520 41 3 40 3 81 -160
80 -161 80 0 c48 0 80 4 80 10 0 6 -25 60 -56 121 -30 61 -54 113 -51 115 9 9
91 -63 125 -111 l38 -53 62 45 c74 53 74 53 -27 154 -74 74 -146 118 -241 148
l-66 21 -41 84 -42 83 -61 0 -62 -1 -43 -87z m-199 -411 c-35 -73 -85 -179
-112 -235 -27 -56 -53 -102 -58 -102 -12 -1 4 136 25 205 24 79 83 169 145
222 27 23 52 42 56 42 4 0 -21 -60 -56 -132z"/>
<path d="M1930 1105 l0 -75 134 0 135 0 35 -67 c20 -37 36 -76 36 -86 0 -31
-68 -114 -127 -157 -93 -66 -151 -84 -278 -84 -126 -1 -184 14 -267 70 -28 19
-52 33 -53 32 -2 -2 -17 -32 -35 -67 -37 -75 -40 -70 62 -122 81 -41 176 -61
293 -61 175 0 311 51 428 161 37 35 69 62 71 60 1 -2 17 -30 35 -61 l32 -58
80 0 c43 0 79 2 79 5 0 3 -38 82 -85 175 l-85 170 0 120 0 120 -245 0 -245 0
0 -75z"/>
</g>
</svg>
